<mxfile host="app.diagrams.net" modified="2023-12-23T21:14:57.729Z" agent="Mozilla/5.0 (Windows NT 10.0; Win64; x64) AppleWebKit/537.36 (KHTML, like Gecko) Chrome/120.0.0.0 Safari/537.36" etag="t7C8Skb2DtEtbXPAdekw" version="22.1.11" type="device">
  <diagram name="Sayfa -1" id="7rVfr07kKPyBIsoaQOA_">
    <mxGraphModel dx="820" dy="798" grid="1" gridSize="10" guides="1" tooltips="1" connect="1" arrows="1" fold="1" page="1" pageScale="1" pageWidth="827" pageHeight="1169" math="0" shadow="0">
      <root>
        <mxCell id="0" />
        <mxCell id="1" parent="0" />
        <mxCell id="d6JyFXWKORS_Npj9D9bG-9" style="edgeStyle=orthogonalEdgeStyle;rounded=0;orthogonalLoop=1;jettySize=auto;html=1;exitX=0.5;exitY=1;exitDx=0;exitDy=0;entryX=0.5;entryY=0;entryDx=0;entryDy=0;" edge="1" parent="1" source="d6JyFXWKORS_Npj9D9bG-1" target="d6JyFXWKORS_Npj9D9bG-2">
          <mxGeometry relative="1" as="geometry" />
        </mxCell>
        <mxCell id="d6JyFXWKORS_Npj9D9bG-1" value="BaÅŸla" style="ellipse;whiteSpace=wrap;html=1;" vertex="1" parent="1">
          <mxGeometry x="354" y="10" width="120" height="50" as="geometry" />
        </mxCell>
        <mxCell id="d6JyFXWKORS_Npj9D9bG-10" style="edgeStyle=orthogonalEdgeStyle;rounded=0;orthogonalLoop=1;jettySize=auto;html=1;exitX=0.5;exitY=1;exitDx=0;exitDy=0;" edge="1" parent="1" source="d6JyFXWKORS_Npj9D9bG-2" target="d6JyFXWKORS_Npj9D9bG-3">
          <mxGeometry relative="1" as="geometry" />
        </mxCell>
        <mxCell id="d6JyFXWKORS_Npj9D9bG-2" value="let bolunen&lt;br&gt;let bolen" style="shape=parallelogram;perimeter=parallelogramPerimeter;whiteSpace=wrap;html=1;fixedSize=1;" vertex="1" parent="1">
          <mxGeometry x="341" y="90" width="146" height="60" as="geometry" />
        </mxCell>
        <mxCell id="d6JyFXWKORS_Npj9D9bG-11" style="edgeStyle=orthogonalEdgeStyle;rounded=0;orthogonalLoop=1;jettySize=auto;html=1;exitX=0.5;exitY=1;exitDx=0;exitDy=0;entryX=0.5;entryY=0;entryDx=0;entryDy=0;" edge="1" parent="1" source="d6JyFXWKORS_Npj9D9bG-3" target="d6JyFXWKORS_Npj9D9bG-4">
          <mxGeometry relative="1" as="geometry" />
        </mxCell>
        <mxCell id="d6JyFXWKORS_Npj9D9bG-3" value="let bolunensayac = 0&lt;br&gt;let bolunensayi = bolunen" style="rounded=0;whiteSpace=wrap;html=1;" vertex="1" parent="1">
          <mxGeometry x="341" y="180" width="146" height="60" as="geometry" />
        </mxCell>
        <mxCell id="d6JyFXWKORS_Npj9D9bG-12" style="edgeStyle=orthogonalEdgeStyle;rounded=0;orthogonalLoop=1;jettySize=auto;html=1;exitX=0.5;exitY=1;exitDx=0;exitDy=0;entryX=0.5;entryY=0;entryDx=0;entryDy=0;" edge="1" parent="1" source="d6JyFXWKORS_Npj9D9bG-4" target="d6JyFXWKORS_Npj9D9bG-5">
          <mxGeometry relative="1" as="geometry" />
        </mxCell>
        <mxCell id="d6JyFXWKORS_Npj9D9bG-4" value="bolunensayi &amp;gt;= bolen" style="shape=hexagon;perimeter=hexagonPerimeter2;whiteSpace=wrap;html=1;fixedSize=1;" vertex="1" parent="1">
          <mxGeometry x="346" y="280" width="136" height="80" as="geometry" />
        </mxCell>
        <mxCell id="d6JyFXWKORS_Npj9D9bG-13" style="edgeStyle=orthogonalEdgeStyle;rounded=0;orthogonalLoop=1;jettySize=auto;html=1;exitX=1;exitY=0.5;exitDx=0;exitDy=0;entryX=1;entryY=0.5;entryDx=0;entryDy=0;" edge="1" parent="1" source="d6JyFXWKORS_Npj9D9bG-5" target="d6JyFXWKORS_Npj9D9bG-4">
          <mxGeometry relative="1" as="geometry" />
        </mxCell>
        <mxCell id="d6JyFXWKORS_Npj9D9bG-5" value="bolunensayi -= bolen&lt;br&gt;bolunensayac++" style="rounded=0;whiteSpace=wrap;html=1;" vertex="1" parent="1">
          <mxGeometry x="354" y="380" width="120" height="60" as="geometry" />
        </mxCell>
        <mxCell id="d6JyFXWKORS_Npj9D9bG-15" style="edgeStyle=orthogonalEdgeStyle;rounded=0;orthogonalLoop=1;jettySize=auto;html=1;entryX=0.5;entryY=0;entryDx=0;entryDy=0;" edge="1" parent="1" source="d6JyFXWKORS_Npj9D9bG-6" target="d6JyFXWKORS_Npj9D9bG-7">
          <mxGeometry relative="1" as="geometry" />
        </mxCell>
        <mxCell id="d6JyFXWKORS_Npj9D9bG-6" value="bolunensayac" style="shape=document;whiteSpace=wrap;html=1;boundedLbl=1;" vertex="1" parent="1">
          <mxGeometry x="180" y="230" width="120" height="80" as="geometry" />
        </mxCell>
        <mxCell id="d6JyFXWKORS_Npj9D9bG-16" style="edgeStyle=orthogonalEdgeStyle;rounded=0;orthogonalLoop=1;jettySize=auto;html=1;entryX=0.5;entryY=0;entryDx=0;entryDy=0;" edge="1" parent="1" source="d6JyFXWKORS_Npj9D9bG-7" target="d6JyFXWKORS_Npj9D9bG-8">
          <mxGeometry relative="1" as="geometry" />
        </mxCell>
        <mxCell id="d6JyFXWKORS_Npj9D9bG-7" value="bolunensayi" style="shape=document;whiteSpace=wrap;html=1;boundedLbl=1;" vertex="1" parent="1">
          <mxGeometry x="180" y="340" width="120" height="80" as="geometry" />
        </mxCell>
        <mxCell id="d6JyFXWKORS_Npj9D9bG-8" value="Bitir" style="ellipse;whiteSpace=wrap;html=1;" vertex="1" parent="1">
          <mxGeometry x="240" y="480" width="120" height="50" as="geometry" />
        </mxCell>
        <mxCell id="d6JyFXWKORS_Npj9D9bG-14" style="edgeStyle=orthogonalEdgeStyle;rounded=0;orthogonalLoop=1;jettySize=auto;html=1;exitX=0;exitY=0.5;exitDx=0;exitDy=0;entryX=1.017;entryY=0.425;entryDx=0;entryDy=0;entryPerimeter=0;" edge="1" parent="1" source="d6JyFXWKORS_Npj9D9bG-4" target="d6JyFXWKORS_Npj9D9bG-6">
          <mxGeometry relative="1" as="geometry" />
        </mxCell>
      </root>
    </mxGraphModel>
  </diagram>
</mxfile>
